<?xml version="1.0" standalone="no"?>
<!DOCTYPE svg PUBLIC "-//W3C//DTD SVG 1.1//EN" "http://www.w3.org/Graphics/SVG/1.1/DTD/svg11.dtd">
<svg width="216" height="216" viewBox="0 0 48 48" xmlns="http://www.w3.org/2000/svg" version="1.1">
  <path d="M44,24.2010101 L33.9004889,14.101499 L14.101499,33.9004889 L64.2010101,84 C49.2525804,63.9497929 54.2887564,61.9975027 58.1431296,58.1431296 C61.9975027,54.2887564 63.9497929,49.2525804 64,44.2010101 Z" fill="#1a237e" />
  <path d="M24.0,24.0m-14.0,0.0a14.0,14.0,0,1,1,28.0,0.0a14.0,14.0,0,1,1,-28.0,0.0" fill="#5c6bc0" />
  <path d="M37.7829445,26.469236 L29.6578482,18.3441397 L18.3441397,29.6578482 L26.469236,37.7829445 C29.1911841,37.2979273 31.7972024,36.0037754 33.9004889,33.9004889 C36.0037754,31.7972024 37.2979273,29.1911841 37.7829445,26.469236 Z" fill="#3f51b5" />
  <path d="M24.0,24.0m-8.0,0.0a8.0,8.0,0,1,1,16.0,0.0a8.0,8.0,0,1,1,-16.0,0.0" fill="#FFFFFF" />
</svg>