<svg height="216" viewBox="0 0 48 48" width="216" xmlns="http://www.w3.org/2000/svg"><path d="m44 24.2010101-10.0995111-10.0995111-19.7989899 19.7989899 50.0995111 50.0995111c-14.9484297-20.0502071-9.9122537-22.0024973-6.0578805-25.8568704 3.8543731-3.8543732 5.8066633-8.8905492 5.8568704-13.9421195z" fill="#7f210c"/><path d="m10 24a14 14 0 1 1 28 0 14 14 0 1 1 -28 0" fill="#ff4219"/><path d="m37.7829445 26.469236-8.1250963-8.1250963-11.3137085 11.3137085 8.1250963 8.1250963c2.7219481-.4850172 5.3279664-1.7791691 7.4312529-3.8824556s3.3974384-4.7093048 3.8824556-7.4312529z" fill="#cc3414"/><path d="m16 24a8 8 0 1 1 16 0 8 8 0 1 1 -16 0" fill="#fff"/></svg>